<svg xmlns="http://www.w3.org/2000/svg" aria-hidden="true" style="position:absolute;width:0;height:0;overflow:hidden"><defs><symbol id="icon-linkedin" viewBox="0 0 32 32"><path d="M27.423 22.857v-.001h.006v-8.383c0-4.101-.883-7.26-5.677-7.26-2.305 0-3.851 1.265-4.483 2.464h-.067V7.596h-4.546v15.26h4.733V15.3c0-1.989.377-3.913 2.841-3.913 2.428 0 2.464 2.27 2.464 4.041v7.43h4.729zM4.949 7.597h4.739v15.26H4.949V7.597zM7.316 0C5.801 0 4.571 1.23 4.571 2.745s1.23 2.77 2.745 2.77c1.515 0 2.745-1.255 2.745-2.77S8.831 0 7.316 0z"/></symbol></defs></svg>